<svg xmlns="http://www.w3.org/2000/svg" width="450.791" height="450.792"><path d="M225.395 0C101.113 0 0 101.112 0 225.392 0 349.677 101.113 450.79 225.395 450.79c124.282 0 225.396-101.113 225.396-225.398C450.791 101.112 349.677 0 225.395 0zm0 428.375c-111.92 0-202.981-91.054-202.981-202.983 0-111.924 91.061-202.978 202.981-202.978 111.922 0 202.98 91.054 202.98 202.978 0 111.93-91.059 202.983-202.98 202.983zm114.051-270.953c0 19.628-15.912 35.541-35.542 35.541-19.634 0-35.546-15.912-35.546-35.541s15.912-35.543 35.546-35.543c19.63-.001 35.542 15.914 35.542 35.543zm-185.348 35.54c-19.629 0-35.542-15.912-35.542-35.541s15.912-35.543 35.542-35.543c19.627 0 35.543 15.915 35.543 35.543s-15.916 35.541-35.543 35.541zm137.494 101.656l15.54 6.41c-13.789 33.454-46.062 55.079-82.235 55.079-35.073 0-66.961-20.728-81.243-52.805l15.352-6.84c11.584 26.025 37.453 42.835 65.891 42.835 29.332 0 55.509-17.543 66.695-44.679z" fill="white"/></svg>
